<svg xmlns="http://www.w3.org/2000/svg" width="16" height="16" viewBox="0 0 16 16"><path fill="#FFF" d="M12.66 8.67c-.01.37-.3.66-.67.67h-2.66v2.66c-.01.37-.3.66-.67.67h-1.33c-.36-.01-.65-.31-.66-.67v-2.67h-2.67c-.37-.01-.66-.3-.67-.67v-1.33c.01-.36.31-.65.67-.66h2.67v-2.67c.01-.37.3-.66.67-.67h1.33c.37.01.66.3.67.67v2.67h2.66c.37.01.66.3.67.67v1.33h-.01zm2.26-4.67c-.7-1.21-1.71-2.22-2.92-2.92-1.21-.71-2.59-1.09-4-1.08-1.41-.01-2.79.37-4 1.08-1.21.7-2.22 1.71-2.92 2.92-.71 1.21-1.09 2.59-1.08 4-.01 1.41.36 2.79 1.07 4 .7 1.21 1.71 2.22 2.93 2.92 1.21.71 2.59 1.09 4 1.08 1.41.01 2.79-.36 4-1.07 1.21-.7 2.22-1.71 2.92-2.93.71-1.21 1.09-2.59 1.08-4 .01-1.41-.37-2.79-1.08-4z"/></svg>