<svg xmlns="http://www.w3.org/2000/svg" width="16" height="16" viewBox="0 0 16 16"><path fill="#FFF" d="M5.91 6.09c-.06-.06-.15-.09-.24-.09h-.67c-.18-.01-.32.13-.33.31v6.02c-.01.18.13.32.31.33h.6900000000000001c.18.01.32-.13.33-.31v-6.02c0-.09-.03-.18-.09-.24zm2.67 0c-.07-.06-.16-.1-.25-.09h-.66c-.18-.01-.32.13-.33.31v6.02c-.01.18.13.32.31.33h.6900000000000001c.18.01.32-.13.33-.31v-6.02c0-.09-.03-.18-.1-.24h.01zm2.67 0c-.07-.06-.16-.1-.25-.09h-.67c-.18-.01-.32.13-.33.31v6.02c-.01.18.13.32.31.33h.6900000000000001c.18.01.32-.13.33-.31v-6.02c0-.09-.03-.18-.09-.24h.01zm1.43 7.78c0 .14-.02.29-.07.42-.03.1-.08.2-.15.28l-.11.09h-8.68l-.11-.09c-.07-.08-.12-.18-.15-.28-.05-.13-.07-.28-.07-.42v-9.87h9.33v9.87h.01zm-6.5-12.42c.04-.06.11-.1.18-.11h3.3c.07.01.14.05.18.11l.5 1.22h-4.67l.51-1.22zm9.15 1.55c.01-.18-.13-.32-.31-.33h-3.24l-.73-1.74c-.11-.27-.31-.5-.56-.66-.24-.17-.53-.26-.82-.27h-3.34c-.29.01-.58.1-.82.27-.25.16-.45.39-.56.66l-.73 1.74h-3.22c-.18-.01-.32.13-.33.31v.6900000000000001c-.01.18.13.32.31.33h1.02v9.91c-.01.53.16 1.05.49 1.47.27.38.71.61 1.18.62h8.66c.47-.01.91-.24 1.18-.63.33-.43.5-.96.49-1.5v-9.87h1c.18.01.32-.13.33-.31v-.6900000000000001z"/></svg>