<svg xmlns="http://www.w3.org/2000/svg" width="20" height="16" viewBox="0 0 20 16"><path fill="#FFF" d="M10 11.64h-.62v-1h-1v-.58l1.21-1.21 1.58 1.58-1.17 1.21zm4.57-7.15l-3.64 3.64c-.07.11-.22.15-.33.08-.11-.07-.15-.22-.08-.33l.08-.08 3.6-3.64c.07-.11.22-.15.33-.08.11.07.15.22.08.33l-.08.08h.04zm.84 5.84c.01-.14-.08-.26-.21-.3-.12-.06-.27-.03-.36.07l-.67.67c-.09.04-.15.12-.17.21v1.31c.01.91-.72 1.67-1.63 1.69h-8.66c-.92.02-1.69-.71-1.71-1.63v-8.7c0-.92.75-1.67 1.67-1.67h8.7c.16 0 .32.02.47.06.11.05.25.03.34-.06l.51-.51c.08-.08.11-.19.09-.3-.02-.11-.09-.2-.19-.24-.38-.18-.8-.26-1.22-.26h-8.66c-.8-.01-1.57.31-2.12.88-.57.55-.89 1.32-.88 2.12v8.66c-.01.8.31 1.57.88 2.12.55.57 1.32.89 2.12.88h8.66c1.66 0 3-1.34 3-3v-2h.04zm-8-.69v3h3l7-7-3-3-7 7zm11.88-6.32c0-.27-.1-.52-.29-.71l-1.59-1.63c-.39-.39-1.02-.39-1.41 0l-1 1 3 3 1-1c.18-.18.28-.41.29-.66z"/></svg>